<svg width="25" height="14" viewBox="0 0 25 14" fill="none" xmlns="http://www.w3.org/2000/svg">
<path fill-rule="evenodd" clip-rule="evenodd" d="M19.2174 13.3043H3.69565V13.284C3.57431 13.2975 3.451 13.3043 3.32609 13.3043C1.48914 13.3043 0 11.8152 0 9.97826C0 8.14131 1.48914 6.65217 3.32609 6.65217C3.45887 6.65217 3.58984 6.65996 3.71857 6.67509C3.70343 6.54637 3.69565 6.4154 3.69565 6.28261C3.69565 4.44566 5.18479 2.95652 7.02174 2.95652C7.58617 2.95652 8.11775 3.09712 8.5834 3.34519C9.43443 1.37714 11.3933 0 13.6739 0C16.3563 0 18.5937 1.90515 19.1068 4.43614C19.1435 4.43524 19.1804 4.43478 19.2174 4.43478C21.6667 4.43478 23.6522 6.4203 23.6522 8.86957C23.6522 11.067 22.054 12.8911 19.9565 13.243V13.3043H19.2174Z" fill="white"/>
<path fill-rule="evenodd" clip-rule="evenodd" d="M19.9565 13.3043H4.43477V13.284C4.31343 13.2975 4.19012 13.3043 4.06521 13.3043C2.22826 13.3043 0.73912 11.8152 0.73912 9.97826C0.73912 8.14131 2.22826 6.65217 4.06521 6.65217C4.19799 6.65217 4.32896 6.65996 4.45769 6.67509C4.44255 6.54637 4.43477 6.4154 4.43477 6.28261C4.43477 4.44566 5.92391 2.95652 7.76086 2.95652C8.32529 2.95652 8.85687 3.09712 9.32252 3.34519C10.1736 1.37714 12.1325 0 14.413 0C17.0954 0 19.3328 1.90515 19.8459 4.43614C19.8827 4.43524 19.9195 4.43478 19.9565 4.43478C22.4058 4.43478 24.3913 6.4203 24.3913 8.86957C24.3913 11.067 22.7931 12.8911 20.6956 13.243V13.3043H19.9565Z" fill="#AEDAFF"/>
</svg>
