<svg width="27" height="26" viewBox="0 0 27 26" fill="none" xmlns="http://www.w3.org/2000/svg">
<path fill-rule="evenodd" clip-rule="evenodd" d="M21.0562 13.3043H5.53446V13.284C5.41312 13.2975 5.28981 13.3043 5.16489 13.3043C3.32795 13.3043 1.83881 11.8152 1.83881 9.97826C1.83881 8.14131 3.32795 6.65217 5.16489 6.65217C5.29768 6.65217 5.42865 6.65996 5.55737 6.67509C5.54224 6.54637 5.53446 6.4154 5.53446 6.28261C5.53446 4.44566 7.0236 2.95652 8.86055 2.95652C9.42497 2.95652 9.95656 3.09712 10.4222 3.34519C11.2732 1.37714 13.2322 0 15.5127 0C18.1951 0 20.4325 1.90515 20.9456 4.43614C20.9823 4.43524 21.0192 4.43478 21.0562 4.43478C23.5055 4.43478 25.491 6.4203 25.491 8.86957C25.491 11.067 23.8928 12.8911 21.7953 13.243V13.3043H21.0562Z" fill="white"/>
<path fill-rule="evenodd" clip-rule="evenodd" d="M21.7953 13.3043H6.27358V13.284C6.15224 13.2975 6.02893 13.3043 5.90401 13.3043C4.06707 13.3043 2.57793 11.8152 2.57793 9.97826C2.57793 8.14131 4.06707 6.65217 5.90401 6.65217C6.0368 6.65217 6.16777 6.65996 6.29649 6.67509C6.28136 6.54637 6.27358 6.4154 6.27358 6.28261C6.27358 4.44566 7.76272 2.95652 9.59967 2.95652C10.1641 2.95652 10.6957 3.09712 11.1613 3.34519C12.0124 1.37714 13.9713 0 16.2518 0C18.9342 0 21.1716 1.90515 21.6847 4.43614C21.7215 4.43524 21.7583 4.43478 21.7953 4.43478C24.2446 4.43478 26.2301 6.4203 26.2301 8.86957C26.2301 11.067 24.6319 12.8911 22.5344 13.243V13.3043H21.7953Z" fill="#AEDAFF"/>
<path d="M1.4692 15.5217C2.5779 17.3696 4.13007 21.0652 1.4692 21.0652C-1.19167 21.0652 0.360508 17.3696 1.4692 15.5217Z" fill="#AEDAFF"/>
<path d="M6.26452 19.9565C7.37322 21.8043 8.92539 25.5 6.26452 25.5C3.60365 25.5 5.15583 21.8043 6.26452 19.9565Z" fill="#AEDAFF"/>
<path d="M11.4384 15.5217C12.5471 17.3696 14.0993 21.0652 11.4384 21.0652C8.77757 21.0652 10.3297 17.3696 11.4384 15.5217Z" fill="#AEDAFF"/>
<path d="M17.3515 19.9565C18.4602 21.8043 20.0124 25.5 17.3515 25.5C14.6906 25.5 16.2428 21.8043 17.3515 19.9565Z" fill="#AEDAFF"/>
<path d="M21.0471 15.5217C22.1558 17.3696 23.708 21.0652 21.0471 21.0652C18.3863 21.0652 19.9384 17.3696 21.0471 15.5217Z" fill="#AEDAFF"/>
</svg>
